<svg xmlns="http://www.w3.org/2000/svg" width="1040" height="620" viewBox="0 0 1040 620">
<rect width="100%" height="100%" fill="#fbfaf7"/>
<text x="520" y="34" text-anchor="middle" font-family="Georgia,serif" font-size="24" fill="#1b1b1b">Trace FFT/THD-like evidence</text>
<text x="520" y="57" text-anchor="middle" font-family="Georgia,serif" font-size="13" fill="#555">host simulation, dominant-bin harmonic ratio; not hardware THD</text>
<text x="278" y="102" text-anchor="end" font-family="Georgia,serif" font-size="12" fill="#333">protected_ai_pwm_h1_baseline</text>
<rect x="290" y="90" width="248.08" height="14" rx="3" fill="#0b6bcb" opacity="0.82"/>
<text x="544.08" y="101" font-family="Georgia,serif" font-size="11" fill="#333">I: 0.837</text>
<rect x="290" y="107" width="352.04" height="14" rx="3" fill="#b45f06" opacity="0.82"/>
<text x="648.04" y="118" font-family="Georgia,serif" font-size="11" fill="#333">T: 1.188</text>
<text x="278" y="153" text-anchor="end" font-family="Georgia,serif" font-size="12" fill="#333">fcs_mpc_one_step_baseline</text>
<rect x="290" y="141" width="281.14" height="14" rx="3" fill="#0b6bcb" opacity="0.82"/>
<text x="577.14" y="152" font-family="Georgia,serif" font-size="11" fill="#333">I: 0.949</text>
<rect x="290" y="158" width="361.24" height="14" rx="3" fill="#b45f06" opacity="0.82"/>
<text x="657.24" y="169" font-family="Georgia,serif" font-size="11" fill="#333">T: 1.219</text>
<text x="278" y="204" text-anchor="end" font-family="Georgia,serif" font-size="12" fill="#333">foc_svm_key_baseline</text>
<rect x="290" y="192" width="317.58" height="14" rx="3" fill="#0b6bcb" opacity="0.82"/>
<text x="613.58" y="203" font-family="Georgia,serif" font-size="11" fill="#333">I: 1.072</text>
<rect x="290" y="209" width="230.82" height="14" rx="3" fill="#b45f06" opacity="0.82"/>
<text x="526.82" y="220" font-family="Georgia,serif" font-size="11" fill="#333">T: 0.779</text>
<text x="278" y="255" text-anchor="end" font-family="Georgia,serif" font-size="12" fill="#333">dtc_hysteresis_baseline</text>
<rect x="290" y="243" width="135.68" height="14" rx="3" fill="#0b6bcb" opacity="0.82"/>
<text x="431.68" y="254" font-family="Georgia,serif" font-size="11" fill="#333">I: 0.458</text>
<rect x="290" y="260" width="127.14" height="14" rx="3" fill="#b45f06" opacity="0.82"/>
<text x="423.14" y="271" font-family="Georgia,serif" font-size="11" fill="#333">T: 0.429</text>
<text x="278" y="306" text-anchor="end" font-family="Georgia,serif" font-size="12" fill="#333">dtc_svm_baseline</text>
<rect x="290" y="294" width="258.50" height="14" rx="3" fill="#0b6bcb" opacity="0.82"/>
<text x="554.50" y="305" font-family="Georgia,serif" font-size="11" fill="#333">I: 0.872</text>
<rect x="290" y="311" width="327.23" height="14" rx="3" fill="#b45f06" opacity="0.82"/>
<text x="623.23" y="322" font-family="Georgia,serif" font-size="11" fill="#333">T: 1.104</text>
<text x="278" y="357" text-anchor="end" font-family="Georgia,serif" font-size="12" fill="#333">deadbeat_current_baseline</text>
<rect x="290" y="345" width="661.92" height="14" rx="3" fill="#0b6bcb" opacity="0.82"/>
<text x="957.92" y="356" font-family="Georgia,serif" font-size="11" fill="#333">I: 2.234</text>
<rect x="290" y="362" width="670.00" height="14" rx="3" fill="#b45f06" opacity="0.82"/>
<text x="966.00" y="373" font-family="Georgia,serif" font-size="11" fill="#333">T: 2.261</text>
<text x="278" y="408" text-anchor="end" font-family="Georgia,serif" font-size="12" fill="#333">sensorless_adaptive_foc_baseline</text>
<rect x="290" y="396" width="557.14" height="14" rx="3" fill="#0b6bcb" opacity="0.82"/>
<text x="853.14" y="407" font-family="Georgia,serif" font-size="11" fill="#333">I: 1.880</text>
<rect x="290" y="413" width="189.40" height="14" rx="3" fill="#b45f06" opacity="0.82"/>
<text x="485.40" y="424" font-family="Georgia,serif" font-size="11" fill="#333">T: 0.639</text>
<text x="278" y="459" text-anchor="end" font-family="Georgia,serif" font-size="12" fill="#333">safe_neural_horizon_pwm_h2</text>
<rect x="290" y="447" width="304.45" height="14" rx="3" fill="#0b6bcb" opacity="0.82"/>
<text x="600.45" y="458" font-family="Georgia,serif" font-size="11" fill="#333">I: 1.027</text>
<rect x="290" y="464" width="338.02" height="14" rx="3" fill="#b45f06" opacity="0.82"/>
<text x="634.02" y="475" font-family="Georgia,serif" font-size="11" fill="#333">T: 1.141</text>
</svg>
